<svg width="38" height="38" viewBox="0 0 38 38" fill="none" xmlns="http://www.w3.org/2000/svg">
<g clip-path="url(#clip0_0_20)">
<path d="M32.2435 5.87951C31.8755 6.90581 31.681 7.92912 31.666 8.95841C31.6511 9.9877 31.8126 11.017 32.1538 12.0523L32.2734 12.4083L31.9174 12.2886C30.903 11.9505 29.8827 11.786 28.8564 11.7979C27.8271 11.8129 26.7919 12.0044 25.7446 12.3754L25.3706 12.5071L25.5052 12.1331C25.8733 11.1097 26.0678 10.0834 26.0827 9.05416C26.0977 8.02487 25.9361 6.99558 25.595 5.9603L25.4783 5.60424L25.8344 5.72392C26.8487 6.06203 27.869 6.2266 28.8953 6.21463C29.9216 6.19967 30.9599 6.00817 32.0041 5.63715L32.3782 5.5055L32.2435 5.87951ZM37.6413 19.0868C36.6569 19.5505 35.7952 20.14 35.0561 20.8551C34.3171 21.5702 33.7037 22.414 33.213 23.3864L33.0454 23.7216L32.8778 23.3864C32.4021 22.429 31.7947 21.5942 31.0586 20.876C30.3196 20.1579 29.4519 19.5625 28.4495 19.0868L28.0904 18.9162L28.4495 18.7486C29.4339 18.2849 30.2956 17.6954 31.0347 16.9803C31.7738 16.2652 32.3871 15.4214 32.8778 14.446L33.0454 14.1109L33.213 14.446C33.6917 15.4034 34.2961 16.2412 35.0322 16.9564C35.7682 17.6745 36.636 18.2699 37.6413 18.7486L38.0004 18.9192L37.6413 19.0897V19.0868ZM31.7827 28.892C31.7977 29.9183 31.9892 30.9565 32.3602 32.0008L32.4919 32.3748L32.1178 32.2401C31.0915 31.8721 30.0682 31.6776 29.0389 31.6627C28.0097 31.6477 26.9804 31.8093 25.9451 32.1504L25.589 32.2701L25.7087 31.914C26.0468 30.8997 26.2114 29.8794 26.1994 28.8531C26.1845 27.8238 25.993 26.7885 25.6219 25.7412L25.4903 25.3672L25.8643 25.5019C26.8876 25.8699 27.9139 26.0644 28.9432 26.0794C29.9725 26.0943 31.0018 25.9327 32.0371 25.5916L32.3931 25.4749L32.2734 25.831C31.9353 26.8453 31.7708 27.8657 31.7827 28.892ZM23.5544 33.2126C22.5969 33.6913 21.7591 34.2957 21.044 35.0318C20.3259 35.7679 19.7304 36.6356 19.2547 37.6409L19.0841 38L18.9136 37.6409C18.4498 36.6565 17.8604 35.7948 17.1452 35.0557C16.4301 34.3167 15.5864 33.7033 14.6139 33.2126L14.2788 33.045L14.6139 32.8775C15.5714 32.4017 16.4062 31.7943 17.1243 31.0583C17.8424 30.3222 18.4378 29.4515 18.9136 28.4491L19.0841 28.0901L19.2547 28.4491C19.7185 29.4335 20.3049 30.2953 21.023 31.0343C21.7382 31.7734 22.5819 32.3868 23.5574 32.8775L23.8925 33.045L23.5574 33.2126H23.5544ZM12.4955 25.8609C12.1275 26.8842 11.933 27.9105 11.918 28.9398C11.903 29.9691 12.0646 30.9984 12.4057 32.0337L12.5224 32.3897L12.1664 32.2701C11.152 31.932 10.1317 31.7674 9.10541 31.7794C8.07911 31.7943 7.04084 31.9858 5.99659 32.3568L5.62257 32.4885L5.75722 32.1145C6.12525 31.0882 6.31974 30.0649 6.3347 29.0356C6.34966 28.0063 6.18808 26.977 5.84698 25.9417L5.7273 25.5857L6.08336 25.7053C7.09769 26.0435 8.118 26.208 9.1443 26.196C10.1736 26.1811 11.2089 25.9896 12.2561 25.6186L12.6301 25.4869L12.4955 25.8609ZM9.54824 19.2543C8.56383 19.7181 7.7021 20.3046 6.96304 21.0227C6.22399 21.7408 5.6106 22.5816 5.11989 23.557L4.95234 23.8921L4.78478 23.557C4.30604 22.5995 3.70163 21.7617 2.96556 21.0466C2.2295 20.3285 1.36178 19.7331 0.356431 19.2573L-0.00262451 19.0868L0.356431 18.9162C1.34084 18.4524 2.20257 17.863 2.94163 17.1479C3.68068 16.4297 4.29407 15.589 4.78478 14.6135L4.95234 14.2784L5.11989 14.6135C5.59564 15.571 6.20304 16.4058 6.93911 17.1239C7.67517 17.842 8.54588 18.4375 9.54824 18.9132L9.9073 19.0838L9.54824 19.2543ZM11.7983 9.14691C11.8133 10.1762 12.0048 11.2115 12.3758 12.2587L12.5075 12.6327L12.1334 12.4981C11.1101 12.1301 10.0838 11.9356 9.05454 11.9206C8.02525 11.9057 6.99596 12.0672 5.96068 12.4083L5.60462 12.525L5.7243 12.169C6.06241 11.1546 6.22698 10.1343 6.21501 9.10802C6.20005 8.08172 6.00856 7.04345 5.63753 5.9992L5.50588 5.62518L5.87989 5.75983C6.90619 6.12786 7.9295 6.32235 8.95879 6.33731C9.98808 6.35227 11.0174 6.19069 12.0526 5.84959L12.4087 5.72991L12.289 6.08597C11.9509 7.1003 11.7864 8.12062 11.7983 9.14691ZM23.3838 5.1225C22.4264 5.59825 21.5915 6.20565 20.8734 6.94172C20.1553 7.68077 19.5599 8.54849 19.0841 9.55085L18.9136 9.90991L18.743 9.55085C18.2793 8.56644 17.6928 7.70471 16.9747 6.96565C16.2566 6.2266 15.4158 5.61321 14.4404 5.1225L14.1052 4.95495L14.4404 4.78739C15.3978 4.30865 16.2356 3.70424 16.9508 2.96817C17.6689 2.23211 18.2643 1.36439 18.7401 0.35904L18.9106 -1.52588e-05L19.0812 0.35904C19.5449 1.34345 20.1344 2.20518 20.8495 2.94424C21.5676 3.68329 22.4084 4.29668 23.3838 4.78739L23.7189 4.95495L23.3838 5.1225Z" fill="#F8AFA6"/>
</g>
<defs>
<clipPath id="clip0_0_20">
<rect width="38" height="38" fill="white"/>
</clipPath>
</defs>
</svg>
