<svg width="119" height="119" viewBox="0 0 119 119" fill="none" xmlns="http://www.w3.org/2000/svg">
<g clip-path="url(#clip0_0_44)">
<path d="M118.104 69.6866C117.594 72.5391 111.498 74.3809 102.562 74.3809H102.336C98.9952 71.6607 94.9377 68.8932 90.3705 66.2958C89.0589 65.5496 87.7473 64.8412 86.4356 64.1801C87.9077 63.9912 89.3797 63.7739 90.8612 63.5189C95.9096 62.6405 100.684 61.4126 104.865 59.9581C113.206 62.9144 118.641 66.6547 118.094 69.6772L118.104 69.6866ZM111.036 88.832C110.215 90.2299 108.045 90.5227 106.365 90.5227C103.279 90.5227 99.1651 89.5877 94.5885 87.9253C92.8145 84.9501 90.6065 81.7954 88.0398 78.584C87.9549 78.4801 87.8605 78.3668 87.7756 78.2629C87.5586 77.989 87.3415 77.7245 87.1151 77.4506C86.7942 77.0633 86.4734 76.6761 86.1431 76.2983C85.1712 75.1554 84.1804 74.0503 83.1896 72.9925C84.6145 73.3041 86.0676 73.5969 87.568 73.852C92.5409 74.7115 97.4949 75.1837 101.958 75.2215C108.771 80.8131 112.583 86.1685 111.026 88.8226L111.036 88.832ZM79.8586 114.617C79.5944 114.712 79.3019 114.759 78.9999 114.759C76.0181 114.759 71.819 110.301 67.8463 103.472C68.5635 99.269 68.9598 94.433 68.9598 89.2476C68.9598 87.7647 68.9221 86.2913 68.856 84.8462C69.743 85.989 70.6677 87.1319 71.6491 88.2842C74.0648 91.1178 76.5559 93.7247 79.0188 96.0009C79.953 96.8605 80.8683 97.6822 81.7836 98.4473C83.35 107.052 82.7838 113.569 79.8586 114.617ZM59.5047 118.159C56.3813 118.159 53.5882 112.228 52.0784 103.604C54.2299 99.8735 56.2964 95.4626 58.0704 90.6455C58.5894 89.2382 59.0612 87.8497 59.5047 86.4802C59.9388 87.8497 60.42 89.2382 60.939 90.6455C62.713 95.4531 64.7796 99.864 66.931 103.604C65.4212 112.228 62.6281 118.159 59.5047 118.159ZM40.0095 114.769C39.7076 114.769 39.415 114.721 39.1508 114.627C36.2162 113.578 35.65 107.061 37.2258 98.4567C40.5568 95.6609 44.0293 92.1945 47.3509 88.2937C48.3322 87.1508 49.257 85.9985 50.144 84.8556C50.0779 86.2913 50.0402 87.7553 50.0402 89.2571C50.0402 94.4425 50.446 99.2784 51.1537 103.482C47.1905 110.31 42.9819 114.769 40.0095 114.769ZM23.2791 105.068C22.4299 105.068 21.7505 104.861 21.2503 104.445C19.5801 103.066 19.8821 99.3729 22.0807 94.3103C22.8639 92.5062 23.8547 90.5889 25.0248 88.6148C29.1484 87.0941 33.6306 85.0067 38.094 82.466C39.4056 81.7198 40.6795 80.9548 41.9156 80.1802C41.3495 81.512 40.8116 82.8721 40.2926 84.2795C38.4903 89.1721 37.1881 93.8663 36.3954 98.0694C31.1678 102.433 26.3931 105.068 23.2886 105.068H23.2791ZM12.6351 90.5322C10.9554 90.5322 8.78511 90.2394 7.96416 88.8415C6.40718 86.1779 10.2194 80.832 17.0323 75.2404C21.4862 75.2026 26.4402 74.7304 31.4226 73.8709C32.9229 73.6064 34.3855 73.3136 35.8104 73.0113C34.8196 74.0692 33.8288 75.1743 32.8569 76.3172C29.5542 80.1991 26.6856 84.1756 24.4303 87.9442C19.8443 89.616 15.7302 90.5511 12.6351 90.5511V90.5322ZM16.4379 74.3903C7.51122 74.3903 1.41543 72.5485 0.896437 69.6961C0.358574 66.6736 5.78439 62.9333 14.1166 59.977C18.193 61.4032 22.9489 62.6311 28.1293 63.5284C29.6108 63.7834 31.0923 64.0101 32.5549 64.199C31.2433 64.8601 29.9411 65.5685 28.62 66.3147C24.0529 68.9121 20.0048 71.6796 16.6643 74.3998H16.4284L16.4379 74.3903ZM7.96416 30.1774C8.78511 28.7795 10.9554 28.4867 12.6351 28.4867C15.7207 28.4867 19.8349 29.4218 24.4115 31.0841C26.6101 34.7583 29.4598 38.7253 32.8474 42.7112C33.8194 43.854 34.8102 44.9591 35.801 46.017C34.3761 45.7053 32.9135 45.4125 31.4131 45.1575C28.8182 44.7041 26.2232 44.3641 23.7037 44.1279C21.4013 43.9202 19.1555 43.8068 17.0229 43.7879C10.21 38.1964 6.39775 32.8504 7.95472 30.1868L7.96416 30.1774ZM21.2503 14.5739C21.7505 14.1583 22.4299 13.9506 23.2791 13.9506C26.3836 13.9506 31.1678 16.5952 36.3954 20.9494C37.1881 25.1525 38.4808 29.8468 40.2926 34.73C40.8116 36.1373 41.3589 37.5069 41.9156 38.8386C40.6889 38.0641 39.415 37.2991 38.094 36.5529C33.6401 34.0121 29.1673 31.9342 25.0437 30.4135C20.5804 22.8574 18.8535 16.548 21.2409 14.5739H21.2503ZM39.1508 4.39201C39.415 4.29756 39.7076 4.25034 40.0095 4.25034C42.9819 4.25034 47.1905 8.70847 51.1537 15.5279C50.4365 19.731 50.0402 24.5669 50.0402 29.7618C50.0402 30.2624 50.0402 30.763 50.0496 31.2636C50.0496 31.6131 50.0591 31.9625 50.0779 32.312C50.0779 32.4442 50.0779 32.5859 50.0874 32.7181C50.0968 33.2093 50.1251 33.691 50.144 34.1633C49.257 33.0204 48.3322 31.8775 47.3509 30.7252C44.0293 26.8243 40.5568 23.358 37.2258 20.5622C35.65 11.9576 36.2162 5.44988 39.1508 4.39201ZM78.9999 4.25034C79.3019 4.25034 79.585 4.29756 79.8586 4.39201C81.8968 5.1193 82.8971 8.69902 82.5951 14.1961C82.4913 16.1607 82.2177 18.2953 81.8119 20.5433C78.4809 23.3485 74.9895 26.8149 71.6585 30.7252C70.6866 31.8681 69.7619 33.0109 68.8654 34.1633C68.9315 32.7276 68.9692 31.2636 68.9692 29.7618C68.9692 29.2423 68.9692 28.7323 68.9598 28.2128C68.9598 28.1561 68.9598 28.0994 68.9598 28.0428C68.9598 27.6177 68.9409 27.1927 68.9315 26.7677C68.9221 26.3993 68.9032 26.0498 68.8937 25.6909C68.8937 25.5776 68.8937 25.4642 68.8843 25.3603C68.7239 21.8278 68.3747 18.522 67.8652 15.5279C71.8378 8.69902 76.0369 4.25034 79.0188 4.25034H78.9999ZM95.7303 13.9506C96.5701 13.9506 97.259 14.1678 97.7591 14.5739C100.146 16.548 98.4291 22.8574 93.9657 30.4135C89.8421 31.9342 85.3788 34.0121 80.9249 36.5529C79.6038 37.2991 78.3299 38.0641 77.1032 38.8386C77.6694 37.5069 78.2073 36.1373 78.7263 34.73C80.4814 29.9696 81.8025 25.2564 82.6045 20.9589C87.8322 16.5858 92.6258 13.9411 95.7303 13.9411V13.9506ZM106.374 28.4867C108.054 28.4867 110.224 28.7795 111.045 30.1774C112.13 32.0381 110.564 35.4006 106.752 39.4242C105.393 40.8599 103.798 42.3239 102.015 43.7785C97.5515 43.8162 92.5786 44.2885 87.5963 45.148C86.0959 45.403 84.6333 45.6958 83.2179 46.0075C84.2087 44.9497 85.1901 43.8446 86.1714 42.7017C89.559 38.7253 92.4088 34.7583 94.6074 31.0747C99.184 29.4123 103.298 28.4773 106.384 28.4773L106.374 28.4867ZM75.4613 59.5047C78.4904 58.4941 81.7459 57.1434 85.0768 55.5094C86.9358 55.7266 88.8324 55.9911 90.7291 56.3217C95.3717 57.1245 99.7407 58.2391 103.572 59.5142C99.6935 60.8082 95.3246 61.8944 90.7291 62.6878C88.8324 63.0183 86.9452 63.2828 85.0768 63.5C81.7364 61.866 78.4809 60.5154 75.4519 59.5047H75.4613ZM75.8954 64.0573C75.0178 64.0573 74.1686 64.0384 73.3476 64.0006C71.8945 62.905 70.479 61.9605 69.1485 61.1765C70.6866 60.8932 72.338 60.4776 74.0931 59.9392C77.0089 60.8554 80.1889 62.1116 83.4632 63.6606C80.8305 63.9156 78.2828 64.0479 75.8954 64.0479V64.0573ZM74.4988 64.8885C74.9612 64.8979 75.4142 64.9074 75.8954 64.9074C78.7263 64.9074 81.7836 64.7279 84.9258 64.3784C86.5866 65.2002 88.2757 66.088 89.9459 67.0514C94.0318 69.3749 97.7497 71.8874 100.901 74.3809C96.7777 74.2864 92.2672 73.8236 87.7378 73.0397C85.8223 72.7091 83.9539 72.3218 82.1422 71.8968C79.5661 69.2333 76.9711 66.872 74.4894 64.9074L74.4988 64.8885ZM93.258 87.4342C89.4741 85.9701 85.4071 84.0339 81.3495 81.7293C79.6604 80.7753 78.0374 79.7741 76.4899 78.7635C74.9895 75.3821 73.3759 72.303 71.7246 69.63C74.6687 70.7539 78.0374 71.7835 81.7175 72.6524C82.9914 73.9842 84.2559 75.3821 85.5015 76.8461C88.5305 80.4069 91.1538 84.0244 93.258 87.4247V87.4342ZM72.3191 87.7458C71.0735 86.2818 69.894 84.799 68.7805 83.3255C68.554 79.6985 68.1105 76.251 67.4877 73.153C69.8562 75.2026 72.6588 77.2995 75.7916 79.3396C76.5371 81.0209 77.2353 82.7682 77.9053 84.5628C79.5189 88.9359 80.7362 93.2241 81.5288 97.1344C81.274 96.9171 81.0287 96.6904 80.7645 96.4638C77.9714 93.9608 75.0933 91.0139 72.3096 87.7458H72.3191ZM57.4382 73.7292C58.278 72.1235 58.9763 70.6028 59.5141 69.1766C60.052 70.6028 60.7503 72.1235 61.5901 73.7292C61.1844 76.7044 60.4955 80.0008 59.5141 83.4672C58.5422 80.0008 57.8439 76.695 57.4382 73.7292ZM52.6352 72.1613C53.5222 71.3584 54.3431 70.5462 55.098 69.7528C55.4755 69.3561 55.8246 68.9688 56.1549 68.591C56.1643 70.1117 56.2964 71.7835 56.5229 73.5686C55.1074 76.2227 53.3146 79.094 51.1914 82.0221C51.4745 78.4329 51.9746 75.0893 52.6257 72.1613H52.6352ZM51.5217 73.1436C50.9083 76.1944 50.4648 79.623 50.2384 83.3349C49.1343 84.799 47.9548 86.2818 46.6998 87.7458C43.6708 91.3067 40.5191 94.4992 37.49 97.1344C38.2827 93.2241 39.4905 88.9359 41.1041 84.5628C41.7741 82.7588 42.4724 81.0114 43.2178 79.3396C46.294 77.3278 49.106 75.231 51.5122 73.153L51.5217 73.1436ZM48.6531 69.0916C50.3422 68.4021 51.8708 67.6654 53.2108 66.9192C52.6918 68.3549 52.2294 69.9794 51.8236 71.7457C49.5401 73.7953 46.8508 75.8732 43.8878 77.8756C45.3976 74.6076 47.0206 71.6323 48.6531 69.0916ZM47.3037 69.6205C45.6524 72.2935 44.0293 75.3821 42.5384 78.7635C40.9814 79.7741 39.3584 80.7658 37.6788 81.7198C33.6118 84.0339 29.5353 85.9701 25.742 87.4342C27.884 83.9772 30.5261 80.3691 33.5268 76.8461C34.7819 75.3821 36.0463 73.9842 37.3108 72.6524C40.9909 71.7835 44.3596 70.7539 47.3037 69.6205ZM45.9449 64.8413C46.1619 64.8318 46.3695 64.8224 46.5865 64.8129C47.2754 64.7751 47.9454 64.7185 48.587 64.6618C49.4552 64.5768 50.2855 64.4729 51.0687 64.3407C50.0874 65.5119 49.0966 66.8625 48.1152 68.3738C45.2844 69.5166 42.01 70.5839 38.4525 71.5001C41.0003 68.931 43.5481 66.6831 45.9543 64.8507L45.9449 64.8413ZM43.1329 64.9074C43.6047 64.9074 44.0671 64.9074 44.5295 64.8885C42.0477 66.8531 39.4622 69.2144 36.8861 71.8779C35.0744 72.303 33.206 72.6902 31.2905 73.0208C26.7611 73.8047 22.2411 74.2676 18.1175 74.3715C21.2786 71.8779 24.9871 69.3655 29.0729 67.042C30.7526 66.088 32.4322 65.1907 34.093 64.369C37.2353 64.7185 40.2926 64.8979 43.1235 64.8979L43.1329 64.9074ZM15.4848 59.5142C19.3065 58.2391 23.666 57.134 28.2992 56.3311C30.1959 56.0005 32.0831 55.7266 33.942 55.5188C37.2824 57.1529 40.5379 58.4941 43.567 59.5142C40.5379 60.5248 37.2824 61.8755 33.942 63.5095C32.0831 63.2922 30.1959 63.0278 28.2992 62.6972C23.666 61.8943 19.3065 60.7893 15.4848 59.5142ZM16.4567 44.6285C16.5322 44.6285 16.6172 44.6285 16.6926 44.6285C20.0331 47.3488 24.0906 50.1068 28.6483 52.7042C29.96 53.4503 31.2716 54.1493 32.5832 54.8199C31.1206 55.0088 29.6391 55.226 28.1576 55.4811C22.9772 56.3784 18.2213 57.6157 14.1449 59.0325C5.78439 56.0761 0.349137 52.3453 0.896437 49.3134C1.02854 48.5672 1.54754 47.8966 2.38736 47.3015C4.77472 45.6203 9.83252 44.6096 16.4379 44.6096L16.4567 44.6285ZM31.2905 45.9981C33.206 46.3287 35.0744 46.7159 36.8861 47.141C39.4622 49.8139 42.0477 52.1658 44.5295 54.1304C44.0765 54.121 43.6141 54.1115 43.1329 54.1115C40.2926 54.1115 37.2447 54.291 34.1024 54.6404C32.4417 53.8187 30.762 52.9309 29.0824 51.9675C24.9965 49.6439 21.2786 47.1315 18.1269 44.638C19.9104 44.6758 21.7599 44.7891 23.6566 44.9686C26.1477 45.1953 28.7238 45.5447 31.2905 45.9886V45.9981ZM47.3037 49.3984C44.3596 48.2649 40.9909 47.2354 37.3108 46.3665C36.0369 45.0441 34.7724 43.6368 33.5268 42.1728C30.4978 38.6119 27.8745 34.9944 25.7703 31.5942C29.5542 33.0582 33.6212 34.9944 37.6788 37.2991C39.3679 38.2625 40.9909 39.2542 42.5384 40.2554C44.0388 43.6368 45.6524 46.7254 47.3037 49.3984ZM51.8331 47.311C52.2388 49.0678 52.7012 50.6735 53.2108 52.1091C51.8614 51.363 50.3422 50.6357 48.6531 49.9367C47.0206 47.4054 45.407 44.4302 43.8972 41.1622C46.9074 43.2023 49.5873 45.2897 51.8331 47.311ZM51.5217 45.8659C49.1532 43.8257 46.3601 41.7289 43.2178 39.6887C42.4818 38.0075 41.7741 36.2601 41.1041 34.4655C39.4905 30.0924 38.2733 25.8043 37.49 21.894C40.5191 24.5292 43.6708 27.7216 46.6998 31.2825C47.9454 32.7465 49.1249 34.2294 50.2384 35.6934C50.4648 39.3959 50.9083 42.8245 51.5217 45.8659ZM51.8708 16.7747C53.8052 20.2788 55.6736 24.3214 57.2778 28.6662C57.9477 30.4702 58.5328 32.2553 59.0612 34.0027C57.9949 37.5541 57.2212 40.926 56.7399 43.9957C55.2207 41.2755 53.324 38.3664 51.0876 35.3911C50.9744 33.5682 50.9178 31.6886 50.9178 29.7712C50.9178 25.1337 51.2669 20.7039 51.8708 16.7747ZM67.5161 45.8659C68.1294 42.8245 68.5729 39.3865 68.7994 35.6839C69.9034 34.2105 71.0924 32.737 72.3285 31.2825C75.367 27.7122 78.5281 24.5197 81.5666 21.8751C80.7645 25.842 79.5283 30.1302 77.9242 34.4655C77.2637 36.2601 76.5559 38.0075 75.8105 39.6887C72.6777 41.7289 69.8845 43.8257 67.5161 45.8659ZM70.3847 49.9367C68.6956 50.6357 67.1669 51.363 65.8175 52.1091C65.9025 51.8636 65.9968 51.618 66.0723 51.363C66.4875 50.1256 66.865 48.7655 67.1952 47.311C69.441 45.2897 72.1304 43.2023 75.1311 41.1622C73.6213 44.4207 71.9983 47.396 70.3752 49.9273L70.3847 49.9367ZM71.7246 49.4078C73.3759 46.7348 74.9895 43.6557 76.4899 40.2743C78.0374 39.2637 79.6604 38.2719 81.3495 37.3085C85.4071 35.0039 89.4741 33.0676 93.258 31.6036C91.1538 35.0039 88.5305 38.6214 85.5015 42.1822C84.2559 43.6462 82.982 45.0536 81.7175 46.3759C78.0374 47.2449 74.6687 48.2744 71.7246 49.4078ZM73.0928 54.1871C71.215 54.2721 69.4977 54.4421 67.969 54.6877C68.9504 53.5165 69.9412 52.1658 70.9225 50.6546C73.7534 49.5023 77.0277 48.435 80.5852 47.5282C78.0374 50.0973 75.4896 52.3453 73.0834 54.1776L73.0928 54.1871ZM75.8954 54.121C75.4236 54.121 74.9612 54.121 74.4988 54.1398C76.9806 52.1752 79.5661 49.8234 82.1516 47.1504C83.9539 46.7254 85.8223 46.3381 87.7473 46.0075C92.2861 45.2141 96.806 44.7608 100.949 44.6569C97.7402 47.1787 94.0035 49.6817 89.9554 51.9863C88.2757 52.9403 86.5961 53.8376 84.9353 54.6593C81.793 54.3099 78.7451 54.1304 75.9048 54.1304L75.8954 54.121ZM69.1485 57.8424C70.479 57.0679 71.8945 56.1139 73.3476 55.0182C74.1686 54.9899 75.0178 54.971 75.886 54.971C78.2733 54.971 80.8305 55.1033 83.4632 55.3583C80.1794 56.9073 77.0089 58.1635 74.0931 59.0891C72.3474 58.5508 70.6866 58.1352 69.1485 57.8518V57.8424ZM65.7515 59.5236C66.4592 59.2497 67.1952 58.9097 67.9595 58.5035C69.3939 58.7113 70.9508 59.0608 72.6116 59.5236C70.9508 59.9864 69.3939 60.3264 67.9595 60.5437C67.1952 60.1375 66.4498 59.7975 65.7515 59.5236ZM67.969 64.3501C69.4977 64.6051 71.215 64.7751 73.0928 64.8507C75.4991 66.6831 78.0374 68.931 80.5946 71.5001C77.0372 70.5934 73.7628 69.5261 70.932 68.3738C69.9506 66.8625 68.9598 65.5119 67.9784 64.3407L67.969 64.3501ZM65.3269 65.663C64.9966 64.8601 64.6474 64.1423 64.2983 63.4811C65.0155 63.7173 65.7987 63.9251 66.6574 64.1045C67.5915 65.1529 68.5446 66.3808 69.4977 67.7693C67.9407 67.0798 66.5441 66.3714 65.3363 65.6535L65.3269 65.663ZM66.3082 68.4115C66.1478 67.8921 65.978 67.4009 65.8175 66.9286C67.1575 67.6748 68.6956 68.4115 70.3847 69.1105C72.0171 71.6512 73.6307 74.617 75.1405 77.8851C72.1304 75.8449 69.441 73.7575 67.1952 71.7362C66.931 70.565 66.6291 69.4694 66.3177 68.421L66.3082 68.4115ZM62.8451 67.2498C62.8074 66.3808 62.7319 65.578 62.6187 64.8413C63.2131 65.3041 63.8831 65.7763 64.6286 66.2391C64.9305 66.9853 65.2136 67.7882 65.4778 68.6571C65.676 69.2994 65.8647 69.97 66.044 70.6595C64.8079 69.4883 63.7321 68.336 62.8451 67.2498ZM62.496 73.5875C62.7225 71.8024 62.8451 70.1306 62.864 68.6099C63.8737 69.7716 65.0626 70.9806 66.412 72.2085C67.082 75.1837 67.5538 78.5179 67.8369 82.0598C65.7137 79.1224 63.9114 76.251 62.5054 73.5875H62.496ZM57.4099 63.9628C57.6835 63.6984 57.9289 63.4434 58.1553 63.1883C58.1553 63.5189 58.1742 63.8684 58.212 64.2368C57.9194 64.8035 57.542 65.3985 57.1079 66.0219C57.174 65.2757 57.2683 64.5862 57.4099 63.9723V63.9628ZM55.985 62.9994C56.3247 62.8483 56.655 62.6877 56.9475 62.5272C56.8343 62.8389 56.7305 63.1789 56.6455 63.5378C56.1643 63.9628 55.617 64.3973 54.9848 64.8318C55.3056 64.1517 55.6359 63.5473 55.985 63.0089V62.9994ZM54.7206 63.4811C54.3525 64.1329 54.0128 64.8696 53.6826 65.663C52.4747 66.3808 51.0687 67.0892 49.5118 67.7787C50.4648 66.3903 51.4179 65.1624 52.3521 64.114C53.2108 63.9345 54.0034 63.7267 54.7206 63.4811ZM51.0499 58.5035C51.8142 58.9097 52.5597 59.2497 53.2579 59.5236C52.5502 59.7975 51.8142 60.1375 51.0499 60.5437C49.6156 60.3359 48.0586 59.9959 46.3978 59.5236C48.0586 59.0608 49.6156 58.7113 51.0499 58.5035ZM49.8609 57.8424C48.3228 58.1257 46.6715 58.5413 44.9258 59.0797C42.01 58.1635 38.83 56.8978 35.5462 55.3488C38.1789 55.0938 40.7267 54.9616 43.1235 54.9616C44.001 54.9616 44.8503 54.9805 45.6618 55.0088C47.115 56.1045 48.5304 57.049 49.8609 57.8329V57.8424ZM51.9557 55.7361C52.5314 56.3689 53.107 56.9262 53.6637 57.4173C52.8805 57.4362 52.0501 57.5118 51.1631 57.6346C49.9081 56.9545 48.5682 56.1139 47.1716 55.1127C48.9362 55.2355 50.5403 55.4433 51.9557 55.7361ZM48.0869 50.664C49.0683 52.1752 50.0685 53.5259 51.0404 54.6971C49.5118 54.4421 47.7944 54.2815 45.926 54.1965C43.5198 52.3642 40.972 50.1162 38.4242 47.5471C41.9817 48.4538 45.256 49.5211 48.0869 50.6735V50.664ZM56.1454 50.4373C55.1452 49.285 53.9657 48.0855 52.6163 46.8576C51.9652 43.9296 51.4745 40.5954 51.182 37.0063C53.2957 39.9343 55.098 42.8056 56.5134 45.4597C56.2775 47.2543 56.1549 48.9167 56.1454 50.4373ZM59.0518 51.1457C58.7781 51.9769 58.5705 52.7514 58.4196 53.4787C58.0232 52.8364 57.5609 52.1847 57.023 51.5046C56.9947 50.1162 57.0702 48.5672 57.2495 46.8954C57.9949 48.4066 58.6083 49.8423 59.0612 51.1552L59.0518 51.1457ZM61.5807 45.318C61.0239 46.3759 60.5333 47.4149 60.0992 48.4161C59.8822 48.9167 59.6934 49.3984 59.5141 49.8612C58.9763 48.435 58.278 46.9143 57.4382 45.2991C57.8439 42.3239 58.5328 39.0275 59.5141 35.5612C60.4955 39.0275 61.1844 42.3334 61.5901 45.3086L61.5807 45.318ZM62.2884 44.024C61.8072 40.9544 61.0334 37.573 59.9577 34.0121C60.4861 32.2648 61.0806 30.4702 61.7411 28.6756C63.3452 24.3308 65.2042 20.2883 67.148 16.7841C67.7614 20.7133 68.1011 25.1431 68.1011 29.7807C68.1011 31.6981 68.0445 33.5777 67.9218 35.4006C65.7326 38.3286 63.8171 41.2472 62.2695 44.0146L62.2884 44.024ZM66.3931 46.867C65.0532 48.0855 63.8642 49.285 62.8734 50.4468C62.8546 48.9261 62.7319 47.2449 62.496 45.4503C63.9303 42.7489 65.7326 39.8965 67.8274 37.0063C67.5444 40.6049 67.0442 43.9485 66.3931 46.8765V46.867ZM64.6286 52.827C63.8831 53.2803 63.2131 53.7526 62.6187 54.2154C62.7319 53.4692 62.8074 52.6664 62.8451 51.8069C63.7227 50.7207 64.7984 49.5873 66.0157 48.4161C65.9685 48.605 65.9213 48.7939 65.8742 48.9733C65.4967 50.3807 65.0815 51.6747 64.6286 52.8175V52.827ZM64.2889 55.5755C64.6569 54.9238 64.9966 54.1965 65.3269 53.3937C66.5347 52.6758 67.9312 51.958 69.4882 51.278C68.5352 52.6664 67.5821 53.9037 66.6574 54.9427C65.7987 55.1221 65.006 55.3299 64.2889 55.5755ZM64.0341 57.4457C63.6566 57.474 63.2886 57.5118 62.9584 57.5685C63.166 57.3229 63.3736 57.049 63.5717 56.7656C64.1662 56.52 64.8456 56.3028 65.5816 56.095C65.0532 56.6145 64.5342 57.0679 64.0341 57.4457ZM65.3457 57.4362C65.9119 56.9451 66.4781 56.3784 67.0537 55.755C68.4691 55.4622 70.0733 55.2544 71.8378 55.1316C70.4413 56.1233 69.1013 56.9734 67.8463 57.6535C66.9593 57.5307 66.1195 57.4551 65.3457 57.4362ZM64.2983 59.0513C63.9963 58.9663 63.7038 58.9002 63.4207 58.853C63.7133 58.6924 63.9963 58.5035 64.2889 58.2863C64.5059 58.2768 64.7229 58.2768 64.9305 58.2768C65.4118 58.2768 65.9308 58.3052 66.4592 58.3524C65.7704 58.6641 65.1098 58.9191 64.487 59.108C64.4304 59.0891 64.3644 59.0702 64.3077 59.0513H64.2983ZM65.3457 61.6488C66.1289 61.6299 66.9593 61.5543 67.8463 61.4315C69.1013 62.1021 70.4413 62.9522 71.8378 63.9534C70.0733 63.8306 68.4691 63.6134 67.0537 63.33C66.4781 62.6972 65.9025 62.1305 65.3457 61.6488ZM62.9678 61.5165C63.3075 61.5732 63.6566 61.6016 64.0341 61.6299C64.5342 62.0077 65.0532 62.4611 65.5816 62.9805C64.8456 62.7822 64.1756 62.565 63.5812 62.3194C63.383 62.0266 63.1754 61.7621 62.9678 61.5165ZM62.0619 62.5461C62.3544 62.7066 62.6753 62.8672 63.015 63.0183C63.3641 63.5473 63.6944 64.1612 64.0247 64.8413C63.4019 64.4162 62.8451 63.9817 62.3733 63.5567C62.2884 63.1978 62.1846 62.8672 62.0714 62.5461H62.0619ZM60.8069 64.2745C60.8447 63.9062 60.8635 63.5473 60.873 63.2072C61.0994 63.4623 61.3353 63.7267 61.6184 63.9817C61.76 64.6051 61.8543 65.2946 61.9204 66.0408C61.4769 65.4268 61.1089 64.8318 60.8163 64.2651L60.8069 64.2745ZM54.9942 61.6299C55.3717 61.6016 55.7397 61.5638 56.0699 61.5071C55.8623 61.7527 55.6642 62.0266 55.466 62.3099C54.8715 62.5555 54.1921 62.7822 53.4561 62.9805C53.9845 62.4611 54.5035 62.0077 55.0036 61.6299H54.9942ZM53.6826 61.6488C53.1164 62.1305 52.5502 62.6972 51.9746 63.33C50.5592 63.6134 48.955 63.8212 47.1905 63.9534C48.587 62.9522 49.927 62.1021 51.182 61.4315C52.069 61.5543 52.9088 61.6299 53.6826 61.6488ZM55.6076 60.232C55.3245 60.402 55.032 60.5815 54.7394 60.7987C54.5224 60.8082 54.3054 60.8176 54.0978 60.8176C53.6165 60.8176 53.0975 60.7893 52.5691 60.742C53.2579 60.4303 53.9279 60.1753 54.5413 59.977C54.9093 60.0903 55.2584 60.1659 55.6076 60.232ZM54.7394 58.2863C55.032 58.5035 55.3245 58.6924 55.6076 58.853C55.2679 58.9191 54.9093 59.0041 54.5413 59.108C53.9185 58.9191 53.2579 58.6641 52.5691 58.3524C53.0975 58.3052 53.6165 58.2768 54.0978 58.2768C54.3054 58.2768 54.5224 58.2768 54.7394 58.2863ZM55.4566 56.7656C55.6547 57.0584 55.8623 57.3229 56.0699 57.5685C55.7302 57.5118 55.3811 57.474 55.0036 57.4457C54.5035 57.0679 53.9845 56.6145 53.4561 56.095C54.1921 56.2934 54.8621 56.5106 55.4566 56.7656ZM53.7014 53.4031C53.7014 53.4031 53.7109 53.4409 53.7203 53.4598C53.7486 53.5165 53.7675 53.5731 53.7958 53.6298C53.8619 53.7809 53.9185 53.9132 53.9845 54.0548C54.2299 54.6027 54.4846 55.1127 54.7394 55.5755C54.0223 55.3394 53.2296 55.1316 52.3709 54.9427C51.4462 53.8943 50.4931 52.6664 49.5401 51.278C51.0971 51.9675 52.503 52.6758 53.7109 53.3937L53.7014 53.4031ZM58.1553 55.8683C57.9383 55.6133 57.693 55.3488 57.4193 55.0938C57.2778 54.4704 57.174 53.7809 57.1079 53.0348C57.5514 53.6487 57.91 54.2343 58.212 54.801C58.1742 55.1788 58.1553 55.5283 58.1459 55.8683H58.1553ZM59.9388 54.6593C59.7689 54.9899 59.6274 55.3205 59.5141 55.6416C59.4009 55.3299 59.2594 55.0088 59.099 54.6782C59.1839 54.0454 59.3254 53.3653 59.5236 52.6286C59.7217 53.3559 59.8633 54.036 59.9482 54.6688L59.9388 54.6593ZM61.609 55.0938C61.3353 55.3583 61.09 55.6133 60.8635 55.8778C60.8635 55.5377 60.8447 55.1883 60.7975 54.8105C61.0994 54.2437 61.4674 53.6487 61.9015 53.0348C61.8355 53.7809 61.7317 54.4704 61.5996 55.0938H61.609ZM63.0339 56.0572C62.6847 56.2083 62.3639 56.3689 62.0619 56.5389C62.1752 56.2272 62.279 55.8872 62.3639 55.5283C62.8451 55.1033 63.3924 54.6688 64.0247 54.2437C63.7038 54.9238 63.3736 55.5283 63.0339 56.0667V56.0572ZM56.6644 55.5283C56.7493 55.8872 56.8531 56.2178 56.9664 56.5389C56.6739 56.3689 56.353 56.2178 56.0133 56.0667C55.6642 55.5377 55.3339 54.9238 55.0036 54.2437C55.6264 54.6688 56.1832 55.1033 56.655 55.5283H56.6644ZM64.2983 60.7893C64.0058 60.572 63.7133 60.3926 63.4302 60.2225C63.7699 60.1564 64.1285 60.0809 64.4965 59.9675C65.1193 60.1564 65.7798 60.4115 66.4686 60.7326C65.9402 60.7798 65.4212 60.8082 64.94 60.8082C64.7324 60.8082 64.5248 60.8082 64.2983 60.7893ZM62.0053 51.5046C61.4674 52.1847 60.9956 52.8553 60.5993 53.4881C60.4483 52.7514 60.2407 51.9675 59.9671 51.1457C60.2313 50.3901 60.5333 49.5967 60.9013 48.7561C61.1655 48.1421 61.4674 47.5093 61.7788 46.867C61.9581 48.5483 62.0336 50.1162 62.0053 51.5141V51.5046ZM56.1832 51.8069C56.2115 52.6664 56.287 53.4692 56.4002 54.2154C55.8057 53.7526 55.1358 53.2803 54.3997 52.827C53.8902 51.533 53.4184 50.0501 53.0032 48.4161C54.2204 49.5873 55.2962 50.7207 56.1832 51.8069ZM59.4575 66.2391C59.2877 65.5969 59.165 64.9924 59.0895 64.4257C59.2594 64.0951 59.4009 63.7645 59.5141 63.4434C59.6368 63.7645 59.7689 64.0856 59.9388 64.4162C59.8539 65.049 59.7123 65.7291 59.5141 66.4564C59.4953 66.3808 59.4764 66.3147 59.4575 66.2391ZM61.7788 72.1707C61.0334 70.6595 60.4295 69.2333 59.9671 67.9109C60.2407 67.0892 60.4483 66.3053 60.5993 65.5685C60.9956 66.2108 61.4674 66.872 62.0053 67.5615C62.0336 68.9499 61.9581 70.4989 61.7788 72.1707ZM35.5556 63.6984C38.8394 62.1494 42.01 60.8932 44.9352 59.977C46.6809 60.5154 48.3417 60.9309 49.8703 61.2143C48.5398 61.9982 47.1244 62.9428 45.6712 64.029C44.8503 64.0667 44.0105 64.0856 43.1329 64.0856C40.7455 64.0856 38.1883 63.9534 35.5556 63.6984ZM54.4752 69.2049C54.0128 69.6961 53.5127 70.1872 52.9937 70.6878C53.4089 69.0444 53.8807 67.552 54.3903 66.2486C55.1357 65.7858 55.7963 65.323 56.3908 64.8507C56.2775 65.5969 56.202 66.3997 56.1643 67.2687C55.6642 67.8921 55.098 68.5438 54.4658 69.2049H54.4752ZM57.0324 67.5709C57.5703 66.8909 58.0421 66.2203 58.4384 65.5874C58.5894 66.3242 58.797 67.0987 59.0706 67.9204C58.6177 69.2333 58.0044 70.6689 57.2589 72.1802C57.0796 70.5084 57.0041 68.9594 57.0324 67.5709ZM64.1096 5.50655C64.1473 5.59155 64.1851 5.67656 64.2323 5.77101C64.2794 5.87491 64.3266 5.97881 64.3738 6.0827C65.4212 8.53846 66.2988 11.7404 66.9499 15.4334C64.8079 19.1643 62.7413 23.5752 60.9579 28.3828C60.4389 29.7901 59.9577 31.188 59.5236 32.5576C59.0895 31.188 58.6083 29.7996 58.0893 28.3828C56.3153 23.5752 54.2487 19.1643 52.0973 15.4334C53.6071 6.81943 56.4002 0.878403 59.5236 0.878403C59.6651 0.878403 59.7972 0.887848 59.9388 0.916184C61.4014 1.1712 62.8546 2.78633 64.119 5.50655H64.1096ZM51.0876 83.6655C53.324 80.6903 55.2301 77.7812 56.7399 75.061C57.2212 78.1212 57.9949 81.4931 59.0706 85.054C58.5422 86.8013 57.9477 88.5959 57.2872 90.3905C55.683 94.7353 53.8241 98.7873 51.8803 102.282C51.2763 98.3528 50.9272 93.923 50.9272 89.2854C50.9272 87.368 50.9838 85.4884 51.0971 83.6655H51.0876ZM68.12 89.2854C68.12 93.923 67.7708 98.3528 67.1669 102.282C65.2325 98.7873 63.3641 94.7353 61.76 90.3905C61.09 88.5865 60.505 86.8013 59.9765 85.054C61.0428 81.5026 61.8166 78.1306 62.2978 75.061C63.8171 77.7812 65.7137 80.6903 67.9595 83.675C68.0633 85.5073 68.12 87.3775 68.12 89.2854ZM98.1743 97.6916C98.212 97.8239 98.2498 97.9561 98.2875 98.0789C98.3347 98.2583 98.3913 98.4473 98.4385 98.6267C98.4385 98.6456 98.4385 98.6645 98.4479 98.6739C99.0613 101.224 98.9481 103.132 98.0611 104.171C97.9761 104.275 97.8723 104.369 97.7685 104.464C97.2684 104.879 96.589 105.087 95.7397 105.087C92.6352 105.087 87.8511 102.443 82.6234 98.0883C81.8402 93.8852 80.538 89.191 78.7263 84.2983C78.2073 82.891 77.66 81.5309 77.1032 80.1991C78.3299 80.9642 79.6038 81.7387 80.9249 82.4849C85.3788 85.0162 89.8421 87.1036 93.9657 88.6243C95.8907 91.8923 97.3156 94.9242 98.1082 97.4744C98.1271 97.5405 98.1554 97.6161 98.1743 97.6916ZM102.581 44.6569C111.508 44.6569 117.603 46.4987 118.122 49.3606C118.5 51.4669 115.858 54.1115 110.875 56.5956C109.101 57.4834 107.101 58.3146 104.931 59.0891C100.845 57.6629 96.07 56.435 90.8801 55.5283C89.3986 55.2733 87.9171 55.0466 86.4545 54.8671C87.7662 54.1965 89.0684 53.4976 90.3894 52.7514C94.8339 50.2201 98.9103 47.4527 102.336 44.6758C102.421 44.6758 102.506 44.6758 102.59 44.6758L102.581 44.6569ZM106.176 59.5331C108.016 58.853 109.724 58.1163 111.262 57.3512C116.688 54.6404 119.425 51.7502 118.962 49.2095C118.377 45.9225 112.555 43.9201 103.345 43.8162C104.836 42.5506 106.195 41.2849 107.375 40.0382C111.527 35.6651 113.102 32.0287 111.791 29.7901C110.97 28.3828 109.149 27.6744 106.374 27.6744C103.421 27.6744 99.552 28.4961 95.2585 29.979C99.5992 22.3662 100.977 16.1607 98.3158 13.96C97.6553 13.4216 96.7872 13.1383 95.7397 13.1383C92.6164 13.1383 87.9454 15.6129 82.8405 19.7405C83.1613 17.8136 83.3689 15.9907 83.4727 14.2717C83.8029 8.29288 82.6329 4.5148 80.17 3.62695C79.8114 3.49472 79.4245 3.42861 79.0188 3.42861C75.8577 3.42861 71.6397 7.63172 67.6387 14.2622C67.0254 11.0792 66.2327 8.29288 65.2985 6.06381C65.2891 6.02603 65.2702 5.98825 65.2608 5.95992C65.1853 5.7899 65.1098 5.62934 65.0438 5.45932C64.9777 5.32709 64.9211 5.19486 64.8645 5.06262C64.855 5.03429 64.8362 5.0154 64.8267 4.98706C63.2886 1.76625 61.4674 0.0377808 59.533 0.0377808C56.0511 0.0377808 53.0598 5.67656 51.4179 14.2717C47.4075 7.64116 43.1895 3.43805 40.0378 3.43805C39.6321 3.43805 39.2452 3.50417 38.8866 3.6364C35.6122 4.8076 34.763 11.1075 36.1973 19.731C31.0923 15.6129 26.4214 13.1477 23.3074 13.1477C22.26 13.1477 21.3824 13.4216 20.7313 13.9694C18.0609 16.1702 19.448 22.3757 23.7887 29.9885C19.4858 28.5056 15.6358 27.6839 12.6728 27.6839C9.90801 27.6839 8.07739 28.3923 7.25644 29.7996C5.52018 32.7748 8.96439 38.1302 15.683 43.8257C10.1345 43.8918 5.82214 44.638 3.14225 45.9509C1.37768 46.8104 0.320829 47.9155 0.0849237 49.2189C-0.518994 52.5908 4.57656 56.4634 12.8521 59.5519C4.53881 62.5839 -0.556738 66.4564 0.0471788 69.8378C0.64166 73.1247 6.44493 75.1176 15.6452 75.231C8.92665 80.9264 5.473 86.2818 7.2187 89.2571C8.03965 90.6644 9.86083 91.3728 12.6351 91.3728C15.598 91.3728 19.4669 90.5416 23.7698 89.0587C22.7979 90.7589 21.9675 92.4023 21.2881 93.9702C18.9007 99.4862 18.6931 103.425 20.6936 105.087C21.3541 105.635 22.2223 105.909 23.2697 105.909C26.3836 105.909 31.0546 103.444 36.1595 99.3257C34.7252 107.949 35.5745 114.249 38.8489 115.42C39.2169 115.552 39.5943 115.619 40.0001 115.619C43.1518 115.619 47.3698 111.416 51.3801 104.785C53.022 113.371 56.0133 119.009 59.4953 119.009C62.9772 119.009 65.9685 113.371 67.6104 104.785C71.6114 111.416 75.8388 115.619 78.9905 115.619C79.3962 115.619 79.7831 115.552 80.1417 115.42C83.4161 114.249 84.2653 107.949 82.831 99.3257C87.9266 103.444 92.5975 105.909 95.7209 105.909C96.7777 105.909 97.6459 105.635 98.297 105.087C99.8728 103.784 100.071 101.064 98.9292 97.276C98.9009 97.1627 98.8631 97.0588 98.8348 96.9455C98.8065 96.8605 98.7688 96.766 98.7405 96.6716C97.995 94.4047 96.8155 91.8262 95.2396 89.0587C99.5331 90.5416 103.393 91.3728 106.355 91.3728C109.12 91.3728 110.951 90.6644 111.772 89.2571C113.508 86.2818 110.064 80.9264 103.345 75.231C112.546 75.1176 118.358 73.1247 118.943 69.8378C119.547 66.4564 114.442 62.5839 106.157 59.4953L106.176 59.5331Z" fill="#F8AFA6"/>
</g>
<defs>
<clipPath id="clip0_0_44">
<rect width="119" height="119" fill="white"/>
</clipPath>
</defs>
</svg>
